<?xml version="1.0" standalone="no"?>
<!DOCTYPE svg PUBLIC "-//W3C//DTD SVG 20010904//EN"
 "http://www.w3.org/TR/2001/REC-SVG-20010904/DTD/svg10.dtd">
<svg version="1.0" xmlns="http://www.w3.org/2000/svg"
 width="457.000000pt" height="335.000000pt" viewBox="0 0 457.000000 335.000000"
 preserveAspectRatio="xMidYMid meet">

<g transform="translate(0.000000,335.000000) scale(0.100000,-0.100000)"
fill="#000000" stroke="none">
<path d="M2131 2736 c-8 -9 -11 -87 -9 -262 l3 -248 31 -8 c17 -4 37 -14 43
-22 8 -9 11 -75 9 -216 l-3 -202 -47 73 c-26 41 -64 93 -85 116 -36 41 -37 44
-37 126 -1 76 -4 87 -29 120 -33 43 -63 60 -155 89 -37 11 -76 27 -87 34 -30
22 -54 17 -61 -11 -12 -47 1 -198 20 -237 40 -83 125 -133 213 -126 57 4 70
-6 136 -109 72 -112 108 -202 135 -337 4 -24 17 -46 33 -58 25 -19 28 -19 57
-4 33 17 37 26 47 96 14 94 87 250 168 358 39 52 40 52 96 52 95 1 171 50 206
133 20 48 30 150 21 211 -9 56 -28 60 -71 16 -27 -28 -40 -33 -162 -56 -37 -7
-92 -63 -105 -105 -9 -30 -9 -55 0 -101 l11 -61 -43 -49 c-24 -28 -59 -77 -78
-109 -18 -32 -36 -59 -40 -59 -9 0 -11 381 -2 405 4 8 22 22 40 30 l34 14 -2
253 -3 253 -25 0 -25 0 -6 -185 c-3 -102 -6 -186 -7 -187 -1 -2 -11 -3 -22 -3
-11 0 -21 1 -22 3 -1 1 -4 85 -7 187 l-6 185 -25 0 -25 0 -6 -185 c-3 -102 -6
-186 -7 -187 -7 -10 -41 0 -46 13 -3 9 -6 91 -6 183 0 117 -4 171 -12 179 -15
15 -23 15 -37 -2z"/>
<path d="M2198 1382 c-12 -2 -18 -15 -20 -45 -3 -39 -5 -42 -35 -45 -70 -7
-111 -98 -76 -171 24 -48 64 -67 104 -51 23 10 36 10 56 1 19 -9 29 -9 39 0
19 15 18 55 -1 63 -12 4 -15 28 -15 125 0 126 -3 134 -52 123z m-23 -203 c0
-37 -3 -44 -20 -44 -15 0 -21 8 -23 33 -4 35 13 65 32 59 6 -2 11 -24 11 -48z"/>
<path d="M1562 1228 l3 -153 75 -3 c96 -4 111 1 134 38 21 36 16 65 -15 98
-18 21 -19 25 -6 40 22 27 27 49 16 80 -14 40 -46 52 -135 52 l-75 0 3 -152z
m132 66 c8 -20 -11 -44 -34 -44 -12 0 -17 9 -18 30 -1 25 3 30 23 30 12 0 26
-7 29 -16z m-3 -115 c12 -23 4 -35 -25 -41 -12 -2 -20 4 -22 16 -7 45 26 63
47 25z"/>
<path d="M1849 1259 c-24 -25 -29 -40 -29 -79 0 -88 71 -140 143 -105 41 19
57 50 57 111 0 96 -107 142 -171 73z m99 -75 c4 -40 -19 -61 -42 -39 -28 29
-16 78 18 73 15 -2 22 -11 24 -34z"/>
<path d="M2344 1259 c-25 -26 -29 -38 -28 -84 0 -38 6 -60 18 -74 44 -49 151
-49 151 -1 0 23 -3 24 -49 21 -59 -3 -61 20 -2 30 39 6 63 24 66 49 8 58 -22
90 -83 90 -35 0 -49 -6 -73 -31z m86 -49 c0 -13 -7 -20 -20 -20 -19 0 -27 20
-13 33 13 14 33 6 33 -13z"/>
<path d="M2530 1286 c0 -3 16 -49 36 -103 37 -97 37 -97 20 -142 -9 -24 -15
-46 -12 -48 2 -2 17 -5 35 -8 23 -2 34 1 41 15 12 22 100 271 100 283 0 4 -17
7 -37 5 -36 -3 -39 -6 -52 -50 -8 -27 -17 -48 -21 -48 -4 0 -13 21 -21 48 -13
44 -16 47 -51 50 -21 2 -38 1 -38 -2z"/>
<path d="M2813 1282 c-7 -4 -10 -17 -7 -28 4 -17 13 -21 41 -20 21 1 38 -4 40
-11 3 -9 -7 -13 -32 -13 -35 0 -85 -35 -85 -59 0 -25 21 -61 45 -77 22 -15 31
-15 64 -4 30 9 43 10 60 0 17 -9 26 -9 37 1 18 15 18 56 0 66 -8 5 -15 32 -18
66 -3 41 -10 61 -24 72 -20 15 -101 20 -121 7z m77 -131 c0 -19 -23 -35 -34
-24 -14 15 -5 43 14 43 13 0 20 -7 20 -19z"/>
</g>
</svg>
